<svg width="20" height="20" viewBox="0 0 20 20" fill="none" xmlns="http://www.w3.org/2000/svg">
<rect x="0.5" y="0.5" width="19" height="19" rx="1.5" stroke="#EAD0C2"/>
<path d="M9.98956 5.36677C9.95719 5.37089 9.92751 5.3872 9.9064 5.41246C9.8853 5.43773 9.87429 5.47012 9.87556 5.50323V12.3385L7.35935 9.90293C7.33393 9.87905 7.30024 9.86636 7.26564 9.86762C7.23103 9.86889 7.19833 9.88401 7.17467 9.90968C7.151 9.93535 7.1383 9.96949 7.13934 10.0046C7.14038 10.0398 7.15507 10.0731 7.1802 10.0973L9.91627 12.7437C9.93471 12.7614 9.95784 12.7733 9.98282 12.7779C10.0078 12.7824 10.0335 12.7794 10.0569 12.7693C10.0802 12.7592 10.1002 12.7424 10.1143 12.721C10.1283 12.6995 10.1359 12.6744 10.1361 12.6486V5.50323C10.1369 5.48402 10.1335 5.46489 10.1262 5.44715C10.1189 5.42941 10.1079 5.41349 10.094 5.40051C10.08 5.38752 10.0635 5.37778 10.0454 5.37195C10.0274 5.36612 10.0083 5.36436 9.98956 5.36677ZM12.7297 9.86571C12.7005 9.86892 12.6733 9.88203 12.6523 9.90293L10.7021 11.7927C10.6876 11.804 10.6757 11.8183 10.667 11.8346C10.6584 11.851 10.6532 11.869 10.6519 11.8875C10.6505 11.906 10.653 11.9245 10.6591 11.942C10.6653 11.9594 10.675 11.9754 10.6876 11.9888C10.7003 12.0022 10.7155 12.0128 10.7324 12.0198C10.7493 12.0268 10.7675 12.0302 10.7857 12.0296C10.804 12.029 10.8219 12.0246 10.8384 12.0165C10.8548 12.0085 10.8694 11.997 10.8812 11.9829L12.8315 10.0973C12.8528 10.0787 12.8676 10.0537 12.8737 10.0259C12.8798 9.99807 12.8769 9.969 12.8655 9.94299C12.8541 9.91698 12.8347 9.89541 12.8102 9.88149C12.7858 9.86757 12.7575 9.86204 12.7297 9.86571ZM4.50927 14.3688C4.47472 14.3721 4.44286 14.3892 4.42072 14.4163C4.39858 14.4435 4.38796 14.4784 4.3912 14.5135C4.39444 14.5486 4.41127 14.581 4.43799 14.6035C4.46472 14.6259 4.49915 14.6367 4.5337 14.6334H15.478C15.4953 14.6337 15.5124 14.6304 15.5284 14.6239C15.5444 14.6174 15.559 14.6077 15.5713 14.5953C15.5836 14.583 15.5934 14.5684 15.6 14.5522C15.6067 14.536 15.6101 14.5186 15.6101 14.5011C15.6101 14.4836 15.6067 14.4662 15.6 14.45C15.5934 14.4339 15.5836 14.4192 15.5713 14.4069C15.559 14.3946 15.5444 14.3849 15.5284 14.3783C15.5124 14.3718 15.4953 14.3685 15.478 14.3688H4.5337C4.52558 14.368 4.5174 14.368 4.50927 14.3688Z" fill="white" stroke="#EAD0C2"/>
</svg>
