<svg width="21" height="20" viewBox="0 0 21 20" fill="none" xmlns="http://www.w3.org/2000/svg">
<rect x="0.341797" width="20" height="20" rx="2" fill="#EAD0C2"/>
<path d="M6.99416 14.1462C6.94078 14.1462 6.8874 14.1324 6.83948 14.105C6.74304 14.0495 6.68359 13.9469 6.68359 13.8358V6.16374C6.68359 6.05265 6.74304 5.95005 6.83948 5.89459C6.93608 5.83957 7.05482 5.83973 7.15051 5.89565L15.3099 9.73169C15.4054 9.78731 15.4641 9.8893 15.4641 9.99978C15.4641 10.1103 15.4054 10.2123 15.3099 10.2679L7.15051 14.1039C7.10229 14.1321 7.04815 14.1462 6.99416 14.1462ZM7.30473 6.70387V13.2957L14.5368 9.99978L7.30473 6.70387Z" fill="#20303F"/>
</svg>
